<?xml version="1.0" encoding="UTF-8" standalone="no"?>
<!DOCTYPE svg PUBLIC "-//W3C//DTD SVG 1.0//EN" "http://www.w3.org/TR/2001/PR-SVG-20010719/DTD/svg10.dtd">
<svg width="31cm" height="11cm" viewBox="-2 46 607 203" xmlns="http://www.w3.org/2000/svg" xmlns:xlink="http://www.w3.org/1999/xlink">
  <g>
    <rect style="fill: #ffffff" x="-1" y="101" width="177.8" height="28"/>
    <rect style="fill: none; fill-opacity:0; stroke-width: 2; stroke: #000000" x="-1" y="101" width="177.8" height="28"/>
    <text font-size="16" style="fill: #000000;text-anchor:middle;font-family:sans-serif;font-style:normal;font-weight:700" x="87.9" y="120">Client(application)</text>
  </g>
  <g>
    <rect style="fill: #ffffff" x="18" y="188" width="88.2" height="28"/>
    <rect style="fill: none; fill-opacity:0; stroke-width: 2; stroke: #000000" x="18" y="188" width="88.2" height="28"/>
    <text font-size="16" style="fill: #000000;text-anchor:middle;font-family:sans-serif;font-style:normal;font-weight:700" x="62.1" y="207">Receiver</text>
    <rect style="fill: #ffffff" x="18" y="216" width="88.2" height="8"/>
    <rect style="fill: none; fill-opacity:0; stroke-width: 2; stroke: #000000" x="18" y="216" width="88.2" height="8"/>
    <rect style="fill: #ffffff" x="18" y="224" width="88.2" height="20"/>
    <rect style="fill: none; fill-opacity:0; stroke-width: 2; stroke: #000000" x="18" y="224" width="88.2" height="20"/>
    <text font-size="12.8" style="fill: #000000;text-anchor:start;font-family:monospace;font-style:normal;font-weight:normal" x="21" y="238">+action()</text>
  </g>
  <g>
    <rect style="fill: #ffffff" x="186" y="62" width="77.3" height="28"/>
    <rect style="fill: none; fill-opacity:0; stroke-width: 2; stroke: #ff0000" x="186" y="62" width="77.3" height="28"/>
    <text font-size="16" style="fill: #000000;text-anchor:middle;font-family:sans-serif;font-style:normal;font-weight:700" x="224.65" y="81">invoker</text>
  </g>
  <g>
    <rect style="fill: #ffffff" x="316" y="48" width="99.7" height="28"/>
    <rect style="fill: none; fill-opacity:0; stroke-width: 2; stroke: #000000" x="316" y="48" width="99.7" height="28"/>
    <text font-size="16" style="fill: #000000;text-anchor:middle;font-family:sans-serif;font-style:normal;font-weight:700" x="365.85" y="67">Command</text>
    <rect style="fill: #ffffff" x="316" y="76" width="99.7" height="8"/>
    <rect style="fill: none; fill-opacity:0; stroke-width: 2; stroke: #000000" x="316" y="76" width="99.7" height="8"/>
    <rect style="fill: #ffffff" x="316" y="84" width="99.7" height="20"/>
    <rect style="fill: none; fill-opacity:0; stroke-width: 2; stroke: #000000" x="316" y="84" width="99.7" height="20"/>
    <text font-size="12.8" style="fill: #000000;text-anchor:start;font-family:monospace;font-style:normal;font-weight:normal" x="319" y="98">+execute()</text>
  </g>
  <g>
    <rect style="fill: #ffffff" x="178" y="177" width="180.6" height="28"/>
    <rect style="fill: none; fill-opacity:0; stroke-width: 2; stroke: #000000" x="178" y="177" width="180.6" height="28"/>
    <text font-size="16" style="fill: #000000;text-anchor:middle;font-family:sans-serif;font-style:normal;font-weight:700" x="268.3" y="196">ConcreteCommand</text>
    <rect style="fill: #ffffff" x="178" y="205" width="180.6" height="20"/>
    <rect style="fill: none; fill-opacity:0; stroke-width: 2; stroke: #000000" x="178" y="205" width="180.6" height="20"/>
    <text font-size="12.8" style="fill: #000000;text-anchor:start;font-family:monospace;font-style:normal;font-weight:normal" x="181" y="219">-Receiver</text>
    <rect style="fill: #ffffff" x="178" y="225" width="180.6" height="20"/>
    <rect style="fill: none; fill-opacity:0; stroke-width: 2; stroke: #000000" x="178" y="225" width="180.6" height="20"/>
    <text font-size="12.8" style="fill: #000000;text-anchor:start;font-family:monospace;font-style:normal;font-weight:normal" x="181" y="239">+execute()</text>
  </g>
  <g>
    <polygon style="fill: #ffffff" points="424,182 591.7,182 603.7,194 603.7,248 424,248 "/>
    <polygon style="fill: none; fill-opacity:0; stroke-width: 2; stroke: #000000" points="424,182 591.7,182 603.7,194 603.7,248 424,248 "/>
    <polyline style="fill: none; fill-opacity:0; stroke-width: 1; stroke: #000000" points="591.7,182 591.7,194 603.7,194 "/>
    <text font-size="12.7998" style="fill: #000000;text-anchor:start;font-family:monospace;font-style:normal;font-weight:normal" x="431" y="206.9">
      <tspan x="431" y="206.9">execute() {</tspan>
      <tspan x="431" y="222.9">   receiver.action();</tspan>
      <tspan x="431" y="238.9">}</tspan>
    </text>
  </g>
  <g>
    <polyline style="fill: none; fill-opacity:0; stroke-width: 2; stroke: #000000" points="288.472,76 278.3,76 313.994,76 314.994,76 "/>
    <polygon style="fill: #ffffff" points="263.3,76 277.3,71.2 291.3,76 277.3,80.8 "/>
    <polygon style="fill: none; fill-opacity:0; stroke-width: 2; stroke: #000000" points="263.3,76 277.3,71.2 291.3,76 277.3,80.8 "/>
  </g>
  <g>
    <polyline style="fill: none; fill-opacity:0; stroke-width: 2; stroke: #000000" points="365.85,123.243 365.85,148.499 268.3,148.499 268.3,175.991 "/>
    <polygon style="fill: #ffffff" points="373.85,123.243 365.85,107.243 357.85,123.243 "/>
    <polygon style="fill: none; fill-opacity:0; stroke-width: 2; stroke: #000000" points="373.85,123.243 365.85,107.243 357.85,123.243 "/>
  </g>
  <g>
    <polyline style="fill: none; fill-opacity:0; stroke-width: 2; stroke-dasharray: 8; stroke: #000000" points="376.836,215 375.6,215 421.994,215 422.994,215 "/>
    <polygon style="fill: #ffffff" points="376.836,207 360.836,215 376.836,223 "/>
    <polygon style="fill: none; fill-opacity:0; stroke-width: 2; stroke: #000000" points="376.836,207 360.836,215 376.836,223 "/>
  </g>
  <g>
    <line style="fill: none; fill-opacity:0; stroke-width: 2; stroke: #000000" x1="113.88" y1="215.553" x2="178" y2="215"/>
    <polyline style="fill: none; fill-opacity:0; stroke-width: 2; stroke: #000000" points="126.484,210.444 110.528,215.582 126.57,220.444 "/>
    <text font-size="12.7998" style="fill: #000000;text-anchor:middle;font-family:sans-serif;font-style:normal;font-weight:normal" x="152" y="227">receive</text>
  </g>
  <g>
    <polyline style="fill: none; fill-opacity:0; stroke-width: 2; stroke-dasharray: 8; stroke: #000000" points="87.9,129 87.9,149 178,149 178,170.295 "/>
    <polyline style="fill: none; fill-opacity:0; stroke-width: 2; stroke: #000000" points="173,157.647 178,173.647 183,157.647 "/>
    <text font-size="12.7998" style="fill: #000000;text-anchor:middle;font-family:monospace;font-style:normal;font-weight:normal" x="132.95" y="146">instantiate</text>
  </g>
</svg>
